<?xml version="1.0" encoding="UTF-8"?>
<svg version="1.1" xmlns="http://www.w3.org/2000/svg" width="512" height="512">
<path d="M0 0 C3.83647585 0.00684674 7.67291214 -0.00371832 11.50937986 -0.01193976 C19.00615139 -0.02521986 26.50283237 -0.02242504 33.99960732 -0.01370184 C40.09704959 -0.00690303 46.19446663 -0.00601803 52.2919116 -0.00927329 C53.59788804 -0.00996284 53.59788804 -0.00996284 54.93024784 -0.01066632 C56.69943087 -0.01162558 58.46861389 -0.01259822 60.2377969 -0.01358409 C76.79415461 -0.02212122 93.35046233 -0.01233026 109.90681183 0.00381701 C124.08654417 0.01721866 138.26620281 0.01489009 152.44593382 0.00106072 C168.94651167 -0.01502481 185.44704581 -0.0212974 201.94763041 -0.01210248 C203.70999415 -0.01114692 205.4723579 -0.01020381 207.23472166 -0.00927329 C208.10164501 -0.00881046 208.96856835 -0.00834764 209.86176211 -0.00787079 C215.94582985 -0.0052898 222.02986967 -0.00963257 228.11393309 -0.01671195 C235.53703999 -0.02516028 242.96005182 -0.0227772 250.38314795 -0.00686972 C254.16431116 0.00096844 257.94531636 0.00418157 261.7264781 -0.00581717 C290.62416 -0.07598824 290.62416 -0.07598824 302.76331663 3.39217401 C303.5020149 3.57883945 304.24071318 3.76550488 305.00179625 3.95782685 C333.62284607 11.52023918 357.14771029 31.88023768 371.91566038 57.01717401 C376.69166568 65.41036564 380.3600768 74.01118762 382.76331663 83.39217401 C383.01100105 84.25741189 383.25868547 85.12264977 383.51387548 86.01410699 C386.78468491 99.34488586 386.19154802 112.99326203 386.15549064 126.62885737 C386.1486439 130.46533322 386.15920896 134.30176951 386.1674304 138.13823724 C386.1807105 145.63500876 386.17791568 153.13168975 386.16919248 160.6284647 C386.16239367 166.72590696 386.16150867 172.823324 386.16476393 178.92076898 C386.16522363 179.79141994 386.16568333 180.6620709 386.16615696 181.55910522 C386.16711621 183.32828824 386.16808886 185.09747126 386.16907473 186.86665428 C386.17761186 203.42301198 386.16782089 219.9793197 386.15167363 236.53566921 C386.13827198 250.71540155 386.14060054 264.89506018 386.15442991 279.07479119 C386.17051544 295.57536904 386.17678804 312.07590318 386.16759312 328.57648778 C386.16663756 330.33885152 386.16569445 332.10121528 386.16476393 333.86357903 C386.1643011 334.73050238 386.16383827 335.59742573 386.16336142 336.49061948 C386.16078044 342.57468722 386.16512321 348.65872704 386.17220259 354.74279046 C386.18065091 362.16589736 386.17826784 369.5889092 386.16236036 377.01200533 C386.1545222 380.79316854 386.15130907 384.57417374 386.16130781 388.35533547 C386.23147887 417.25301738 386.23147887 417.25301738 382.76331663 429.39217401 C382.57665119 430.13087228 382.38998575 430.86957055 382.19766378 431.63065362 C374.63525145 460.25170344 354.27525296 483.77656766 329.13831663 498.54451776 C320.745125 503.32052305 312.14430302 506.98893418 302.76331663 509.39217401 C301.4654598 509.76370064 301.4654598 509.76370064 300.14138365 510.14273286 C286.81060478 513.41354228 273.1622286 512.82040539 259.52663326 512.78434801 C255.69015742 512.77750127 251.85372113 512.78806633 248.0172534 512.79628778 C240.52048187 512.80956787 233.02380089 512.80677305 225.52702594 512.79804985 C219.42958368 512.79125104 213.33216663 512.79036604 207.23472166 512.7936213 C206.3640707 512.794081 205.49341974 512.7945407 204.59638542 512.79501433 C202.82720239 512.79597359 201.05801937 512.79694623 199.28883636 512.7979321 C182.73247866 512.80646923 166.17617093 512.79667827 149.61982143 512.780531 C135.44008909 512.76712935 121.26043045 512.76945792 107.08069944 512.78328729 C90.58012159 512.79937282 74.07958745 512.80564541 57.57900286 512.7964505 C55.81663911 512.79549493 54.05427536 512.79455182 52.2919116 512.7936213 C51.42498825 512.79315848 50.55806491 512.79269565 49.66487116 512.7922188 C43.58080341 512.78963781 37.49676359 512.79398058 31.41270018 512.80105996 C23.98959327 512.80950829 16.56658144 512.80712522 9.14348531 512.79121773 C5.3623221 512.78337957 1.5813169 512.78016644 -2.19984484 512.79016519 C-31.09752674 512.86033625 -31.09752674 512.86033625 -43.23668337 509.39217401 C-43.97538164 509.20550857 -44.71407991 509.01884313 -45.47516298 508.82652116 C-74.09621281 501.26410883 -97.62107703 480.90411033 -112.38902712 455.76717401 C-117.16503242 447.37398237 -120.83344354 438.77316039 -123.23668337 429.39217401 C-123.60821 428.09431718 -123.60821 428.09431718 -123.98724222 426.77024102 C-127.25805164 413.43946215 -126.66491476 399.79108598 -126.62885737 386.15549064 C-126.62201064 382.31901479 -126.6325757 378.4825785 -126.64079714 374.64611077 C-126.65407724 367.14933925 -126.65128242 359.65265826 -126.64255922 352.15588331 C-126.63576041 346.05844105 -126.63487541 339.96102401 -126.63813066 333.86357903 C-126.63859036 332.99292808 -126.63905006 332.12227712 -126.63952369 331.22524279 C-126.64048295 329.45605977 -126.64145559 327.68687675 -126.64244147 325.91769373 C-126.65097859 309.36133603 -126.64118763 292.80502831 -126.62504037 276.2486788 C-126.61163872 262.06894646 -126.61396728 247.88928783 -126.62779665 233.70955682 C-126.64388218 217.20897897 -126.65015478 200.70844483 -126.64095986 184.20786023 C-126.6400043 182.44549649 -126.63906118 180.68313273 -126.63813066 178.92076898 C-126.63766784 178.05384563 -126.63720501 177.18692228 -126.63672816 176.29372853 C-126.63414718 170.20966079 -126.63848995 164.12562097 -126.64556932 158.04155755 C-126.65401765 150.61845065 -126.65163458 143.19543881 -126.63572709 135.77234268 C-126.62788894 131.99117947 -126.62467581 128.21017427 -126.63467455 124.42901254 C-126.70484561 95.53133064 -126.70484561 95.53133064 -123.23668337 83.39217401 C-123.05001793 82.65347573 -122.86335249 81.91477746 -122.67103052 81.15369439 C-115.10861819 52.53264457 -94.7486197 29.00778035 -69.61168337 14.23983026 C-61.21849174 9.46382496 -52.61766976 5.79541383 -43.23668337 3.39217401 C-42.37144548 3.14448958 -41.5062076 2.89680516 -40.61475039 2.64161515 C-27.28397152 -0.62919427 -13.63559534 -0.03605738 0 0 Z " fill="#1D342A" transform="translate(126.23668336868286,-0.39217400550842285)"/>
<path d="M0 0 C0.33 0 0.66 0 1 0 C1.10022461 0.76965088 1.20044922 1.53930176 1.30371094 2.33227539 C3.92116263 22.92272948 3.92116263 22.92272948 9 43 C9.23509277 43.73959961 9.47018555 44.47919922 9.71240234 45.24121094 C12.17826319 52.96956057 14.70951233 60.57931564 18 68 C33.60207516 63.30184703 47.99393977 54.66698193 61 45 C59.82426949 41.77498221 58.65039465 39.26228868 56.375 36.6875 C55.59125 35.800625 54.8075 34.91375 54 34 C54.33 33.34 54.66 32.68 55 32 C55.73605469 32.60070312 56.47210938 33.20140625 57.23046875 33.8203125 C58.20628906 34.58085937 59.18210938 35.34140625 60.1875 36.125 C61.15042969 36.89070313 62.11335937 37.65640625 63.10546875 38.4453125 C65.86626466 40.33437481 65.86626466 40.33437481 68.6640625 39.40625 C70.7084989 38.17548561 72.43386168 36.98289358 74.1875 35.375 C77 33 77 33 79 33 C77.22054913 37.04420651 74.60470327 40.46078487 72 44 C81.88721212 52.33312458 92.88644489 58.83505962 104.6875 64.0625 C105.3585376 64.3615625 106.0295752 64.660625 106.72094727 64.96875 C110.10389963 66.41039556 112.2559307 67 116 67 C125.50728309 46.00306416 130.30902668 22.81302755 133 0 C133.33 0 133.66 0 134 0 C134.67591079 3.9102405 135.35134182 7.82056358 136.02636719 11.73095703 C136.3662949 13.699586 136.70658025 15.6681532 137.046875 17.63671875 C138.25072539 24.61196954 139.43740487 31.58912148 140.57543945 38.57543945 C142.30458593 48.4501684 146.42303934 58.12630076 151 67 C156.383904 66.49482649 160.57211082 65.08054898 165.375 62.5625 C166.06343994 62.20760498 166.75187988 61.85270996 167.46118164 61.48706055 C169.65143204 60.34353544 171.82761831 59.17709055 174 58 C174.70012207 57.62166016 175.40024414 57.24332031 176.12158203 56.85351562 C186.93884129 50.93079594 196.66378584 44.00158777 206.25512695 36.26171875 C208.09021644 34.93476444 209.95130677 33.95734904 212 33 C210.37903496 36.68879072 208.07256745 39.55091972 205.5625 42.6875 C193.01961517 58.72938378 183.4528779 76.08115611 176 95 C177.05380859 95.16628906 177.05380859 95.16628906 178.12890625 95.3359375 C181.31627317 96.07315162 183.9567598 97.27373111 186.9375 98.625 C199.2642945 103.91049297 212.94705797 106.16014595 226 109 C224.91215032 105.75016865 224.91215032 105.75016865 223 103 C221.14712498 102.92773498 219.29166122 102.9161878 217.4375 102.9375 C216.42558594 102.94652344 215.41367187 102.95554687 214.37109375 102.96484375 C213.58863281 102.97644531 212.80617188 102.98804688 212 103 C212 101.68 212 100.36 212 99 C212.87398438 98.65388672 212.87398438 98.65388672 213.765625 98.30078125 C214.58546875 97.97464844 215.4053125 97.64851563 216.25 97.3125 C217.16136719 96.9515625 218.07273437 96.590625 219.01171875 96.21875 C221.0276626 95.39656114 223.03044229 94.54143318 225.01953125 93.65625 C231.15813215 90.94549428 236.28504658 89.33574767 243 89 C243.33 94.94 243.66 100.88 244 107 C245.155 105.30875 246.31 103.6175 247.5 101.875 C251.70775878 96.07531827 256.0849668 91.30501107 263 89 C271.83829787 88.57234043 271.83829787 88.57234043 276 91 C278.69745749 93.62455323 279.86562238 95.21053146 280.5 98.9375 C279.87263356 102.78011945 278.39792409 104.96733129 276 108 C272.77239609 109.61380195 270.59420831 109.39935648 267 109 C264.55728141 107.55246306 262.34795813 105.96527448 260.11328125 104.21484375 C258.09756353 102.78761198 258.09756353 102.78761198 255.8828125 103.1875 C250.38521404 105.55990763 246.39016135 111.67353312 244 117 C243.32694493 120.74234241 243.34418472 124.38935793 243.40625 128.18359375 C243.40618958 129.76600609 243.40618958 129.76600609 243.40612793 131.38038635 C243.4114669 133.60171495 243.42897956 135.82304411 243.45800781 138.04418945 C243.49983213 141.42393437 243.49907183 144.80168055 243.4921875 148.18164062 C243.50268281 150.34897203 243.51562274 152.51629327 243.53125 154.68359375 C243.53155212 156.18399452 243.53155212 156.18399452 243.53186035 157.71470642 C243.64444625 164.46847056 244.16443589 171.63933142 248.6875 177 C252.09691518 178.4743417 255.30131255 178.69177605 259 179 C259.33 180.32 259.66 181.64 260 183 C244.16 183 228.32 183 212 183 C212 182.01 212 181.02 212 180 C212.60328125 179.90203125 213.2065625 179.8040625 213.828125 179.703125 C218.69216041 178.79307967 221.89087142 178.14550477 225 174 C226.29966585 171.4006683 226.16044162 169.45135797 226.20532227 166.54052734 C226.22526749 165.39949554 226.24521271 164.25846375 226.26576233 163.08285522 C226.28247482 161.84637238 226.29918732 160.60988953 226.31640625 159.3359375 C226.3475779 157.4424205 226.3475779 157.4424205 226.37937927 155.51065063 C226.43377926 152.15367955 226.48400236 148.79669811 226.53222656 145.43963623 C226.58245042 142.01438935 226.63813186 138.58923171 226.69335938 135.1640625 C226.80061859 128.44277939 226.9023744 121.72142956 227 115 C223.19570569 115.77686546 219.39268443 116.55980243 215.58984375 117.34375 C214.52423218 117.5612793 213.45862061 117.77880859 212.36071777 118.00292969 C193.83484004 121.74216229 193.83484004 121.74216229 177 130 C183.7760401 149.57901034 194.56342485 166.33725783 207.05200195 182.74633789 C207.54917725 183.39981201 208.04635254 184.05328613 208.55859375 184.7265625 C209.22846313 185.60175537 209.22846313 185.60175537 209.91186523 186.49462891 C211 188 211 188 212 190 C207.96366159 188.24288751 204.61738737 185.56776865 201.125 182.9375 C178.28358069 166.00152708 178.28358069 166.00152708 152 156 C141.92079816 170.13255828 139.86073044 188.29677334 137 205 C136.83338867 205.96470215 136.66677734 206.9294043 136.49511719 207.92333984 C135.6322687 212.94411762 134.79953763 217.9687632 134 223 C133.67 223 133.34 223 133 223 C132.91548584 222.38930664 132.83097168 221.77861328 132.74389648 221.14941406 C129.63564425 199.19013106 126.23187954 175.93904732 116 156 C108.8668322 157.26940094 103.17498052 159.57640477 96.8125 163 C95.44798706 163.72280151 95.44798706 163.72280151 94.0559082 164.46020508 C86.22722232 168.69541845 79.02838642 173.55447708 72 179 C72.40992188 179.60328125 72.81984375 180.2065625 73.2421875 180.828125 C73.78101563 181.62734375 74.31984375 182.4265625 74.875 183.25 C75.40867187 184.03890625 75.94234375 184.8278125 76.4921875 185.640625 C77.81822015 187.71555692 78.94928175 189.77614972 80 192 C78.55962331 191.06692579 77.12281015 190.12834923 75.6875 189.1875 C74.48673828 188.40439453 74.48673828 188.40439453 73.26171875 187.60546875 C71.2762598 186.19610151 69.6508148 184.77903343 68 183 C62.59510481 184.52012677 59.01507372 188.27385218 55 192 C54.67 191.34 54.34 190.68 54 190 C54.75796875 188.95199219 54.75796875 188.95199219 55.53125 187.8828125 C56.1809375 186.97273437 56.830625 186.06265625 57.5 185.125 C58.1496875 184.22007812 58.799375 183.31515625 59.46875 182.3828125 C61.18020606 180.19164492 61.18020606 180.19164492 61 178 C58.5133644 176.19209113 56.03123803 174.51730259 53.4375 172.875 C52.67042725 172.38580078 51.90335449 171.89660156 51.11303711 171.39257812 C40.99801225 165.01795634 30.78808131 158.66271954 19 156 C8.59594069 170.11979478 6.43053827 189.04296535 3.75 205.9375 C3.4798609 207.60362833 3.2090311 209.26964483 2.9375 210.93554688 C2.28373185 214.95579218 1.63920705 218.97741495 1 223 C-0.71139831 219.95471121 -1.41034321 217.32925199 -1.89453125 213.87890625 C-2.04253174 212.87150391 -2.19053223 211.86410156 -2.34301758 210.82617188 C-2.49794678 209.74916016 -2.65287598 208.67214844 -2.8125 207.5625 C-5.59105557 189.4593532 -9.39990166 172.71145543 -17 156 C-32.93065667 158.2758081 -47.90238517 168.89883667 -60.71166992 178.10522461 C-64.78747886 181 -64.78747886 181 -67 181 C-67 181.66 -67 182.32 -67 183 C-81.85 183 -96.7 183 -112 183 C-112 182.01 -112 181.02 -112 180 C-111.38511719 179.89042969 -110.77023438 179.78085937 -110.13671875 179.66796875 C-109.32847656 179.50941406 -108.52023438 179.35085938 -107.6875 179.1875 C-106.88699219 179.03667969 -106.08648437 178.88585937 -105.26171875 178.73046875 C-102.72936328 177.91259229 -101.66990561 177.03985393 -100 175 C-98.67046208 172.34092416 -98.88013969 170.33434632 -98.88647461 167.35693359 C-98.88655014 166.17586029 -98.88662567 164.99478699 -98.88670349 163.77792358 C-98.89186478 162.49769318 -98.89702606 161.21746277 -98.90234375 159.8984375 C-98.9037587 158.59170074 -98.90517365 157.28496399 -98.90663147 155.93862915 C-98.91045106 152.46323742 -98.92027658 148.98788743 -98.93133545 145.51251221 C-98.94156157 141.96668055 -98.94613167 138.42084215 -98.95117188 134.875 C-98.96189934 127.91664778 -98.97949164 120.95833019 -99 114 C-102.63 113.34 -106.26 112.68 -110 112 C-110 111.67 -110 111.34 -110 111 C-105.05 110.505 -105.05 110.505 -100 110 C-101.92249182 106.44339014 -103.56237836 104.15005368 -107 102 C-113.40597064 100.6513746 -118.70152256 102.30337751 -124.3828125 105.22265625 C-125.24648437 105.80917969 -126.11015625 106.39570313 -127 107 C-127.65155563 107.41539536 -128.30311127 107.83079071 -128.97441101 108.2587738 C-132.34628565 110.7229427 -134.63416501 112.61599968 -135.72546387 116.74452209 C-135.97528328 120.08456598 -135.97819477 123.33928412 -135.88671875 126.6875 C-135.88251419 127.90397217 -135.87830963 129.12044434 -135.87397766 130.3737793 C-135.8575522 132.93915407 -135.82191968 135.50446877 -135.76831055 138.06933594 C-135.68776509 141.98710572 -135.66585666 145.90179104 -135.65429688 149.8203125 C-135.63103716 152.31774267 -135.60445571 154.81514456 -135.57421875 157.3125 C-135.55979988 159.06276489 -135.55979988 159.06276489 -135.54508972 160.84838867 C-135.40273368 166.95555533 -135.0223955 171.63518937 -132 177 C-128.81909789 179.49928023 -124.93611516 179.54583287 -121 180 C-121 180.99 -121 181.98 -121 183 C-135.85 183 -150.7 183 -166 183 C-166 182.01 -166 181.02 -166 180 C-165.31292969 179.85304688 -164.62585938 179.70609375 -163.91796875 179.5546875 C-162.56638672 179.21824219 -162.56638672 179.21824219 -161.1875 178.875 C-159.84751953 178.56175781 -159.84751953 178.56175781 -158.48046875 178.2421875 C-155.01110719 176.50477494 -154.46188739 174.54618555 -153 171 C-152.55254895 167.89083837 -152.55254895 167.89083837 -152.61181641 164.61499023 C-152.60235992 163.37027451 -152.59290344 162.12555878 -152.5831604 160.84312439 C-152.58853004 159.49827757 -152.59468297 158.15343369 -152.6015625 156.80859375 C-152.59953925 155.4166702 -152.59662572 154.02474769 -152.59286499 152.63282776 C-152.58845487 149.72362113 -152.59483093 146.81469184 -152.60888672 143.90551758 C-152.62599422 140.18422898 -152.61611985 136.46358882 -152.59816933 132.74232388 C-152.58730933 129.87090704 -152.59078762 126.99964304 -152.5985527 124.12822151 C-152.60054778 122.7563475 -152.59811984 121.38445942 -152.59111404 120.01260185 C-152.58346217 118.09360916 -152.59720053 116.17456752 -152.61181641 114.25561523 C-152.61420319 113.16562729 -152.61658997 112.07563934 -152.61904907 110.95262146 C-153.05279574 107.59079809 -153.953466 105.68502028 -156 103 C-158.50361789 102.3970916 -158.50361789 102.3970916 -161.1875 102.6875 C-162.53908203 102.75517578 -162.53908203 102.75517578 -163.91796875 102.82421875 C-164.60503906 102.88222656 -165.29210937 102.94023437 -166 103 C-166.33 101.68 -166.66 100.36 -167 99 C-162.96524575 97.31624018 -158.92118852 95.65607274 -154.875 94 C-153.73289062 93.52304688 -152.59078125 93.04609375 -151.4140625 92.5546875 C-150.30546875 92.10351562 -149.196875 91.65234375 -148.0546875 91.1875 C-146.53077393 90.55908203 -146.53077393 90.55908203 -144.97607422 89.91796875 C-142 89 -142 89 -136 89 C-136 94.94 -136 100.88 -136 107 C-135.34 107 -134.68 107 -134 107 C-133.75378906 106.42121094 -133.50757813 105.84242188 -133.25390625 105.24609375 C-129.16018104 97.91309688 -120.01005613 91.92519252 -112.09765625 89.390625 C-105.08301764 88.08436083 -97.93548459 88.05212133 -91.68359375 91.73046875 C-87.43727415 94.93244988 -84.52879608 98.8576859 -83 104 C-83 104.99 -83 105.98 -83 107 C-79.22463702 106.12261091 -75.45581395 105.21964562 -71.6875 104.3125 C-70.1087207 103.94608398 -70.1087207 103.94608398 -68.49804688 103.57226562 C-61.22434239 101.80419592 -54.69421579 99.33911293 -48 96 C-47.23776123 95.62012939 -46.47552246 95.24025879 -45.69018555 94.84887695 C-45.13242432 94.56874756 -44.57466309 94.28861816 -44 94 C-46.21770006 73.71929362 -63.18513885 53.82127902 -75.328125 38.27734375 C-76.83046704 36.23092924 -77.9026811 34.27630848 -79 32 C-78.29907227 32.53113403 -78.29907227 32.53113403 -77.58398438 33.07299805 C-50.03466268 54.73407401 -50.03466268 54.73407401 -18 68 C-7.20707158 48.89422033 -4.02030672 25.84407826 -1.359375 4.34375 C-1 2 -1 2 0 0 Z " fill="#F1D789" transform="translate(196,134)"/>
<path d="M0 0 C2.34311895 1.34906849 4.6071295 2.68319782 6.71484375 4.3828125 C8.43165544 5.75776454 10.05494958 6.97132437 12 8 C16.52404341 7.33794487 19.59725762 3.8734269 23 1 C23.66 1 24.32 1 25 1 C23.22054913 5.04420651 20.60470327 8.46078487 18 12 C29.06144384 21.32278871 41.33277017 28.05599793 54.63671875 33.58984375 C57.15492863 34.64567855 59.58427882 35.73403979 62 37 C52.22205455 53.8205814 38.52990086 64.04305513 20 70 C8.09850195 73.08302193 -2.54501199 67.74465674 -12.6875 61.875 C-21.81190328 56.34480897 -29.42334265 49.1662299 -35 40 C-35 39.34 -35 38.68 -35 38 C-35.66 38 -36.32 38 -37 38 C-36 36 -36 36 -34.1640625 35.28125 C-33.32617188 35.0234375 -32.48828125 34.765625 -31.625 34.5 C-17.67725208 29.614656 -4.81518731 21.78184478 7 13 C5.83125626 9.78322402 4.68954447 7.33684236 2.375 4.8125 C0 2 0 2 0 0 Z " fill="#B5AA70" transform="translate(250,166)"/>
<path d="M0 0 C10.01671433 6.20883362 17.48225134 13.8571034 22.55859375 24.5859375 C21.81738281 24.84246094 21.07617188 25.09898437 20.3125 25.36328125 C5.00728551 30.92711075 -8.49747466 38.76003697 -21.44140625 48.5859375 C-21.03148437 49.18921875 -20.6215625 49.7925 -20.19921875 50.4140625 C-19.66039062 51.21328125 -19.1215625 52.0125 -18.56640625 52.8359375 C-18.03273438 53.62484375 -17.4990625 54.41375 -16.94921875 55.2265625 C-15.6231861 57.30149442 -14.4921245 59.36208722 -13.44140625 61.5859375 C-14.88178294 60.65286329 -16.3185961 59.71428673 -17.75390625 58.7734375 C-18.55441406 58.25136719 -19.35492188 57.72929687 -20.1796875 57.19140625 C-22.16514645 55.78203901 -23.79059145 54.36497093 -25.44140625 52.5859375 C-30.84630144 54.10606427 -34.42633253 57.85978968 -38.44140625 61.5859375 C-38.77140625 60.9259375 -39.10140625 60.2659375 -39.44140625 59.5859375 C-38.93609375 58.88726562 -38.43078125 58.18859375 -37.91015625 57.46875 C-37.26046875 56.55867188 -36.61078125 55.64859375 -35.94140625 54.7109375 C-35.29171875 53.80601562 -34.64203125 52.90109375 -33.97265625 51.96875 C-32.26120019 49.77758242 -32.26120019 49.77758242 -32.44140625 47.5859375 C-34.92804185 45.77802863 -37.41016822 44.10324009 -40.00390625 42.4609375 C-40.770979 41.97173828 -41.53805176 41.48253906 -42.32836914 40.97851562 C-57.45964234 31.08965552 -57.45964234 31.08965552 -74.44140625 25.5859375 C-75.43140625 26.0809375 -75.43140625 26.0809375 -76.44140625 26.5859375 C-72.03480192 14.2961616 -62.02897985 4.56326692 -50.58203125 -1.30859375 C-48.37589073 -2.40751207 -48.37589073 -2.40751207 -46.13671875 -3.87890625 C-42.90303403 -5.72070059 -39.57596736 -6.97306686 -36.06640625 -8.1640625 C-35.4321875 -8.39738281 -34.79796875 -8.63070312 -34.14453125 -8.87109375 C-22.57127428 -12.81544867 -9.96120631 -5.6962486 0 0 Z " fill="#B5A96F" transform="translate(289.44140625,264.4140625)"/>
<path d="M0 0 C0 5.94 0 11.88 0 18 C0.66 18 1.32 18 2 18 C2.24621094 17.42121094 2.49242187 16.84242188 2.74609375 16.24609375 C6.83981896 8.91309688 15.98994387 2.92519252 23.90234375 0.390625 C30.91698236 -0.91563917 38.06451541 -0.94787867 44.31640625 2.73046875 C48.56272585 5.93244988 51.47120392 9.8576859 53 15 C53 15.99 53 16.98 53 18 C47.91996301 20.00527776 42.49264569 21.5602866 37 21 C34.62897474 19.26387013 33.63672999 17.5294918 32 15 C27.68522195 12.1234813 24.06340236 12.31051542 19 13 C15.34442188 14.23135263 12.18845461 15.8347062 9 18 C8.34844437 18.41539536 7.69688873 18.83079071 7.02558899 19.2587738 C3.65371435 21.7229427 1.36583499 23.61599968 0.27453613 27.74452209 C0.02471672 31.08456598 0.02180523 34.33928412 0.11328125 37.6875 C0.11748581 38.90397217 0.12169037 40.12044434 0.12602234 41.3737793 C0.1424478 43.93915407 0.17808032 46.50446877 0.23168945 49.06933594 C0.31223491 52.98710572 0.33414334 56.90179104 0.34570312 60.8203125 C0.36896284 63.31774267 0.39554429 65.81514456 0.42578125 68.3125 C0.44020012 70.06276489 0.44020012 70.06276489 0.45491028 71.84838867 C0.59726632 77.95555533 0.9776045 82.63518937 4 88 C7.18090211 90.49928023 11.06388484 90.54583287 15 91 C15 91.99 15 92.98 15 94 C0.15 94 -14.7 94 -30 94 C-30 93.01 -30 92.02 -30 91 C-29.31292969 90.85304688 -28.62585938 90.70609375 -27.91796875 90.5546875 C-27.01691406 90.33039063 -26.11585937 90.10609375 -25.1875 89.875 C-23.84751953 89.56175781 -23.84751953 89.56175781 -22.48046875 89.2421875 C-19.01110719 87.50477494 -18.46188739 85.54618555 -17 82 C-16.55254895 78.89083837 -16.55254895 78.89083837 -16.61181641 75.61499023 C-16.60235992 74.37027451 -16.59290344 73.12555878 -16.5831604 71.84312439 C-16.58853004 70.49827757 -16.59468297 69.15343369 -16.6015625 67.80859375 C-16.59953925 66.4166702 -16.59662572 65.02474769 -16.59286499 63.63282776 C-16.58845487 60.72362113 -16.59483093 57.81469184 -16.60888672 54.90551758 C-16.62599422 51.18422898 -16.61611985 47.46358882 -16.59816933 43.74232388 C-16.58730933 40.87090704 -16.59078762 37.99964304 -16.5985527 35.12822151 C-16.60054778 33.7563475 -16.59811984 32.38445942 -16.59111404 31.01260185 C-16.58346217 29.09360916 -16.59720053 27.17456752 -16.61181641 25.25561523 C-16.61420319 24.16562729 -16.61658997 23.07563934 -16.61904907 21.95262146 C-17.05279574 18.59079809 -17.953466 16.68502028 -20 14 C-22.50361789 13.3970916 -22.50361789 13.3970916 -25.1875 13.6875 C-26.08855469 13.73261719 -26.98960938 13.77773437 -27.91796875 13.82421875 C-28.60503906 13.88222656 -29.29210937 13.94023437 -30 14 C-30.33 12.68 -30.66 11.36 -31 10 C-26.96524575 8.31624018 -22.92118852 6.65607274 -18.875 5 C-17.73289062 4.52304688 -16.59078125 4.04609375 -15.4140625 3.5546875 C-14.30546875 3.10351562 -13.196875 2.65234375 -12.0546875 2.1875 C-10.53077393 1.55908203 -10.53077393 1.55908203 -8.97607422 0.91796875 C-6 0 -6 0 0 0 Z " fill="#F4E8C7" transform="translate(60,223)"/>
<path d="M0 0 C0.33 5.94 0.66 11.88 1 18 C2.155 16.30875 3.31 14.6175 4.5 12.875 C8.70775878 7.07531827 13.0849668 2.30501107 20 0 C28.83829787 -0.42765957 28.83829787 -0.42765957 33 2 C35.69745749 4.62455323 36.86562238 6.21053146 37.5 9.9375 C36.87263356 13.78011945 35.39792409 15.96733129 33 19 C29.77239609 20.61380195 27.59420831 20.39935648 24 20 C21.55728141 18.55246306 19.34795813 16.96527448 17.11328125 15.21484375 C15.09756353 13.78761198 15.09756353 13.78761198 12.8828125 14.1875 C7.38521404 16.55990763 3.39016135 22.67353312 1 28 C0.32694493 31.74234241 0.34418472 35.38935793 0.40625 39.18359375 C0.40620972 40.23853531 0.40616943 41.29347687 0.40612793 42.38038635 C0.4114669 44.60171495 0.42897956 46.82304411 0.45800781 49.04418945 C0.49983213 52.42393437 0.49907183 55.80168055 0.4921875 59.18164062 C0.50268281 61.34897203 0.51562274 63.51629327 0.53125 65.68359375 C0.53155212 67.18399452 0.53155212 67.18399452 0.53186035 68.71470642 C0.64444625 75.46847056 1.16443589 82.63933142 5.6875 88 C9.09691518 89.4743417 12.30131255 89.69177605 16 90 C16.33 91.32 16.66 92.64 17 94 C1.16 94 -14.68 94 -31 94 C-31 93.01 -31 92.02 -31 91 C-30.39671875 90.90203125 -29.7934375 90.8040625 -29.171875 90.703125 C-24.30783959 89.79307967 -21.10912858 89.14550477 -18 85 C-16.61545954 82.23091908 -16.85745604 79.96834636 -16.83886719 76.86962891 C-16.82445587 74.93719833 -16.82445587 74.93719833 -16.80975342 72.96572876 C-16.80490568 71.55267513 -16.80062679 70.13961946 -16.796875 68.7265625 C-16.79112353 67.28168739 -16.7853658 65.83681231 -16.77960205 64.39193726 C-16.76909163 61.36057174 -16.76324928 58.32923274 -16.75976562 55.29785156 C-16.75428151 51.41499546 -16.73025582 47.53249014 -16.70179367 43.64974403 C-16.68316224 40.66430642 -16.67796143 37.67895321 -16.67642975 34.69346237 C-16.67340368 33.26213031 -16.66537663 31.83079971 -16.65224457 30.39952469 C-16.63517592 28.39614046 -16.63891032 26.39261171 -16.64355469 24.38916016 C-16.63990906 23.24935699 -16.63626343 22.10955383 -16.63250732 20.93521118 C-17.03990787 17.68125069 -17.68094712 16.28900621 -20 14 C-22.7386225 13.51659568 -22.7386225 13.51659568 -25.6875 13.75 C-27.17830078 13.80414063 -27.17830078 13.80414063 -28.69921875 13.859375 C-29.45847656 13.90578125 -30.21773438 13.9521875 -31 14 C-31 12.68 -31 11.36 -31 10 C-30.41734375 9.76925781 -29.8346875 9.53851563 -29.234375 9.30078125 C-23.31777666 6.94716587 -17.43481991 4.52209496 -11.56640625 2.05078125 C-7.12833191 0.23367014 -5.12306952 0 0 0 Z " fill="#F3E9CD" transform="translate(439,223)"/>
<path d="M0 0 C5.47574752 0.43503203 10.6194676 0.89976234 15.83203125 2.7421875 C16.81494141 3.08636719 17.79785156 3.43054688 18.81054688 3.78515625 C20.29651367 4.32462891 20.29651367 4.32462891 21.8125 4.875 C23.3274707 5.40287109 23.3274707 5.40287109 24.87304688 5.94140625 C29.57650457 7.61167704 33.7639136 9.32542711 38 12 C37.49605698 17.4313859 36.03763125 21.65548616 33.5 26.5 C33.14542725 27.1899707 32.79085449 27.87994141 32.42553711 28.59082031 C27.31620253 38.39627553 21.68540214 47.89734489 15.3125 56.9375 C14.62800781 57.91589844 13.94351563 58.89429688 13.23828125 59.90234375 C11 62 11 62 7.875 62.4140625 C5 62 5 62 2.6875 60.4375 C-1.35868091 54.59301647 -0.13026266 45.97947651 -0.09765625 39.16015625 C-0.0962413 38.03806259 -0.09482635 36.91596893 -0.09336853 35.75987244 C-0.087794 32.19405392 -0.07524616 28.62829938 -0.0625 25.0625 C-0.05748171 22.6373707 -0.05291938 20.21224041 -0.04882812 17.78710938 C-0.03783291 11.85805128 -0.0211202 5.92903021 0 0 Z " fill="#45553E" transform="translate(115,251)"/>
<path d="M0 0 C0.66 0 1.32 0 2 0 C3.78974322 2.44445271 5.44168443 4.88327818 7.0625 7.4375 C7.79243164 8.58037476 7.79243164 8.58037476 8.53710938 9.74633789 C22.37464327 31.71815874 22.37464327 31.71815874 25 44 C21.67836409 45.69089313 18.34157558 47.34892652 15 49 C13.865625 49.5775 12.73125 50.155 11.5625 50.75 C1.08531987 54.42620355 -7.03718836 52.64135776 -17 48 C-19.06554128 46.73948429 -21.02162444 45.39773281 -23 44 C-22.44921734 38.91706285 -20.70483023 34.85890611 -18.375 30.375 C-18.01672119 29.6742334 -17.65844238 28.9734668 -17.28930664 28.25146484 C-7.04058363 8.39668549 -7.04058363 8.39668549 0 0 Z " fill="#707752" transform="translate(262,184)"/>
<path d="M0 0 C1.08539063 0.42023438 2.17078125 0.84046875 3.2890625 1.2734375 C6.1563643 2.5292431 8.73663655 3.94782472 11.375 5.625 C9.65332299 17.67673907 2.78274078 28.45742189 -3.3125 38.8125 C-3.66836182 39.42367676 -4.02422363 40.03485352 -4.39086914 40.66455078 C-6.75155747 44.57561504 -9.30931096 47.5415834 -12.625 50.625 C-35.625 17.6375261 -35.625 17.6375261 -35.625 5.625 C-31.04956262 2.61190709 -26.28597775 0.61747721 -21.125 -1.1875 C-20.1822522 -1.53397583 -20.1822522 -1.53397583 -19.22045898 -1.88745117 C-12.17484755 -4.26042997 -6.71142505 -2.64292395 0 0 Z " fill="#707551" transform="translate(274.625,257.375)"/>
<path d="M0 0 C1.72945653 0.14235457 3.45855654 0.28904382 5.1875 0.4375 C6.63189453 0.55931641 6.63189453 0.55931641 8.10546875 0.68359375 C10.78649602 0.97666151 13.3662986 1.42703754 16 2 C16.00879936 2.97266563 16.00879936 2.97266563 16.01777649 3.96498108 C16.08184114 10.73011174 16.16629488 17.49477245 16.26245117 24.25952148 C16.29565129 26.78224481 16.32369842 29.30504154 16.34643555 31.82788086 C16.38007096 35.45979006 16.43239367 39.09102957 16.48828125 42.72265625 C16.49467117 43.84583755 16.5010611 44.96901886 16.50764465 46.12623596 C16.63418033 52.90601814 16.90690295 58.68596744 21.75 63.875 C24.77645399 65.38822699 27.65498963 65.67836439 31 66 C31 66.99 31 67.98 31 69 C16.15 69 1.3 69 -14 69 C-14 68.01 -14 67.02 -14 66 C-13.07767578 65.83564453 -13.07767578 65.83564453 -12.13671875 65.66796875 C-11.32847656 65.50941406 -10.52023438 65.35085938 -9.6875 65.1875 C-8.88699219 65.03667969 -8.08648437 64.88585937 -7.26171875 64.73046875 C-4.72936328 63.91259229 -3.66990561 63.03985393 -2 61 C-0.67789941 58.35579883 -0.83877878 56.31800385 -0.79467773 53.35693359 C-0.77473251 52.17586029 -0.75478729 50.99478699 -0.73423767 49.77792358 C-0.71752518 48.49769318 -0.70081268 47.21746277 -0.68359375 45.8984375 C-0.66281265 44.59170074 -0.64203156 43.28496399 -0.62062073 41.93862915 C-0.56540706 38.463311 -0.51599475 34.98793347 -0.46777344 31.51251221 C-0.41755323 27.966621 -0.36186988 24.4208161 -0.30664062 20.875 C-0.19906772 13.9167415 -0.09762083 6.95840504 0 0 Z " fill="#F3E5C0" transform="translate(98,248)"/>
<path d="M0 0 C0 3.89550539 -1.12236218 4.55920353 -3.6875 7.4375 C-14.46979183 20.2946177 -22.98629882 34.79813353 -30 50 C-30.5259375 51.13308594 -31.051875 52.26617187 -31.59375 53.43359375 C-32.74702095 55.94836513 -33.88436443 58.46836543 -35 61 C-37.64 59.68 -40.28 58.36 -43 57 C-43 56.34 -43 55.68 -43 55 C-43.61875 54.690625 -44.2375 54.38125 -44.875 54.0625 C-46.25 53.375 -47.625 52.6875 -49 52 C-49 51.34 -49 50.68 -49 50 C-49.66 50 -50.32 50 -51 50 C-52.7265625 47.8828125 -52.7265625 47.8828125 -54.625 45.125 C-55.25664062 44.22007812 -55.88828125 43.31515625 -56.5390625 42.3828125 C-58 40 -58 40 -58 38 C-58.66 38 -59.32 38 -60 38 C-60.33 36.68 -60.66 35.36 -61 34 C-59.83339844 33.90589844 -58.66679687 33.81179687 -57.46484375 33.71484375 C-53.07295879 33.1582618 -49.44961272 31.62751311 -45.5625 29.5625 C-44.87857178 29.20760498 -44.19464355 28.85270996 -43.48999023 28.48706055 C-41.3153926 27.34447535 -39.15616223 26.17696985 -37 25 C-36.30132812 24.62166016 -35.60265625 24.24332031 -34.8828125 23.85351562 C-24.04408173 17.92041857 -14.27451531 10.97413988 -4.63134766 3.26171875 C-3.1377333 2.10652585 -1.57108954 1.04739302 0 0 Z " fill="#A89F69" transform="translate(407,167)"/>
<path d="M0 0 C0.46728516 0.35408936 0.93457031 0.70817871 1.41601562 1.07299805 C20.45328714 15.43268678 39.72040106 28.24293643 62 37 C55.16416849 48.49001466 47.94100668 55.38284345 37 63 C36.01 62.505 36.01 62.505 35 62 C34.86980469 61.16597656 34.73960937 60.33195312 34.60546875 59.47265625 C31.22460502 40.08176688 15.49034236 21.40587057 3.671875 6.27734375 C2.16953296 4.23092924 1.0973189 2.27630848 0 0 Z " fill="#A8A16B" transform="translate(117,166)"/>
<path d="M0 0 C2.94740372 1.47370186 2.99763413 3.41608737 4.0625 6.5 C10.56512093 23.92319902 20.85028048 39.02809233 32.05200195 53.74633789 C32.79776489 54.72654907 32.79776489 54.72654907 33.55859375 55.7265625 C34.00517334 56.31002441 34.45175293 56.89348633 34.91186523 57.49462891 C36 59 36 59 37 61 C32.96366159 59.24288751 29.61738737 56.56776865 26.125 53.9375 C3.39104968 36.53698423 3.39104968 36.53698423 -23 27 C-23.66 27.33 -24.32 27.66 -25 28 C-20.6592258 15.89382069 -10.74763182 6.61392728 0 0 Z " fill="#A79E68" transform="translate(371,263)"/>
<path d="M0 0 C5.82166452 2.98343805 11.54088559 6.11074593 16 11 C16 11.66 16 12.32 16 13 C16.66 13 17.32 13 18 13 C19.69140625 15.08203125 19.69140625 15.08203125 21.5625 17.8125 C22.49255859 19.15248047 22.49255859 19.15248047 23.44140625 20.51953125 C25 23 25 23 26 26 C25.05382812 26.31710937 24.10765625 26.63421875 23.1328125 26.9609375 C8.70451205 31.9802797 -4.70325885 38.94877668 -16.73828125 48.40625 C-20.61436764 51.13758549 -23.05275099 52.09317203 -27.8125 51.625 C-28.864375 51.41875 -29.91625 51.2125 -31 51 C-30.43410156 50.79246094 -29.86820312 50.58492188 -29.28515625 50.37109375 C-26.19331001 48.515986 -24.45557725 45.97208754 -22.4375 43.0625 C-22.01057861 42.45349854 -21.58365723 41.84449707 -21.14379883 41.21704102 C-12.92722043 29.26524807 -5.51047539 16.83796332 -1 3 C-0.67 2.01 -0.34 1.02 0 0 Z " fill="#AAA16B" transform="translate(153,263)"/>
<path d="M0 0 C1.99665246 2.99497869 2.53460043 4.86206201 3.3125 8.3125 C4.72700683 13.56836362 5.87429635 16.40098192 10 20 C14.83228165 22.46788684 19.66723149 24.03819711 25 25 C22.56853223 27.43146777 21.00790958 27.611171 17.6875 28.375 C12.47538684 29.75627803 8.96356404 31.02008415 5.890625 35.68359375 C3.01758022 40.85715626 1.90429062 46.19350235 1 52 C0.67 52 0.34 52 0 52 C-0.17015625 51.13117188 -0.3403125 50.26234375 -0.515625 49.3671875 C-2.71474258 38.53708221 -2.71474258 38.53708221 -10.1875 30.8125 C-14.26914997 28.69181665 -18.60412453 27.31577225 -23 26 C-20.18333306 24.12222204 -18.26813641 23.38697308 -15.0625 22.5 C-11.84531264 21.60714559 -8.88273338 20.71162294 -6 19 C-4.83486387 16.80067065 -4.83486387 16.80067065 -4 14 C-3.48024342 12.68707323 -2.95933092 11.3746037 -2.4375 10.0625 C-1.18792666 6.73661539 -0.44220838 3.53766703 0 0 Z " fill="#B2A56B" transform="translate(450,394)"/>
<path d="M0 0 C0.33 0 0.66 0 1 0 C1.99 3.96 2.98 7.92 4 12 C7.91211733 10.84414715 10.8745041 9.64465038 14 7 C14.66 7.33 15.32 7.66 16 8 C15.57847656 8.62648438 15.15695313 9.25296875 14.72265625 9.8984375 C13.90087891 11.12433594 13.90087891 11.12433594 13.0625 12.375 C12.24458984 13.59316406 12.24458984 13.59316406 11.41015625 14.8359375 C9.98906121 16.92719184 9.98906121 16.92719184 9 19 C13.29 19.99 17.58 20.98 22 22 C22 22.33 22 22.66 22 23 C21.00419922 23.16435547 21.00419922 23.16435547 19.98828125 23.33203125 C11.86384554 24.76813363 11.86384554 24.76813363 5.4765625 29.7421875 C3.75817968 32.36976758 3.07237034 34.71051865 2.3125 37.75 C2.06113281 38.73484375 1.80976562 39.7196875 1.55078125 40.734375 C1.36902344 41.48203125 1.18726562 42.2296875 1 43 C-0.48992097 40.21036074 -1.46383876 37.54060223 -2.3125 34.5 C-3.71906017 30.27339064 -5.00880241 28.25589429 -9 26 C-11.96262312 24.85478434 -14.94807331 23.87767826 -18 23 C-17 21 -17 21 -15.109375 20.359375 C-14.33078125 20.15828125 -13.5521875 19.9571875 -12.75 19.75 C-9.01967052 18.53616263 -6.40410571 17.30190672 -3.99609375 14.02734375 C-1.83521121 9.62931223 -0.95118458 4.77912252 0 0 Z " fill="#A9A16A" transform="translate(61,70)"/>
<path d="M0 0 C0.66 0 1.32 0 2 0 C2.391875 1.2375 2.78375 2.475 3.1875 3.75 C4.69767493 7.74420098 6.26944502 9.74431559 10 12 C13.17921787 13.25556887 13.17921787 13.25556887 16 14 C16 14.33 16 14.66 16 15 C15.39671875 15.15855469 14.7934375 15.31710938 14.171875 15.48046875 C9.03923951 16.97886717 5.73198981 18.10518492 3 23 C2.20309162 26.18762109 2.20309162 26.18762109 2 29 C1.34 29 0.68 29 0 29 C-0.99 25.37 -1.98 21.74 -3 18 C-6.96 17.01 -10.92 16.02 -15 15 C-14 13 -14 13 -12.2578125 12.40234375 C-11.20207031 12.17224609 -11.20207031 12.17224609 -10.125 11.9375 C-7.67254759 11.38999679 -5.39288361 10.79762787 -3 10 C-1.97299556 7.67108904 -1.97299556 7.67108904 -1.3125 4.9375 C-1.06113281 4.01839844 -0.80976563 3.09929687 -0.55078125 2.15234375 C-0.36902344 1.44207031 -0.18726563 0.73179688 0 0 Z " fill="#8F8A5B" transform="translate(470,78)"/>
<path d="M0 0 C0.33 0 0.66 0 1 0 C1.06316406 0.60328125 1.12632813 1.2065625 1.19140625 1.828125 C1.82552213 6.65307682 1.82552213 6.65307682 4.62109375 10.41796875 C6.36917058 11.3665094 8.18391085 12.18924592 10 13 C10.66 13.66 11.32 14.32 12 15 C10.3603125 15.61875 10.3603125 15.61875 8.6875 16.25 C5.4781593 17.62450551 3.75162337 18.88600289 2 22 C1.67 22.99 1.34 23.98 1 25 C0.34 25 -0.32 25 -1 25 C-1.12375 23.906875 -1.2475 22.81375 -1.375 21.6875 C-1.80238587 19.70464115 -1.80238587 19.70464115 -3 18 C-6.22251691 16.45276506 -9.5005629 15.67793523 -13 15 C-10 13 -10 13 -7 11.8125 C-2.3463337 9.00090995 -1.64975858 4.94927575 0 0 Z " fill="#7D7B52" transform="translate(51,421)"/>
<path d="M0 0 C2.34311895 1.34906849 4.6071295 2.68319782 6.71484375 4.3828125 C8.43165544 5.75776454 10.05494958 6.97132437 12 8 C16.52404341 7.33794487 19.59725762 3.8734269 23 1 C23.66 1 24.32 1 25 1 C23.22054913 5.04420651 20.60470327 8.46078487 18 12 C18.99 13.485 18.99 13.485 20 15 C18.125 14.6875 18.125 14.6875 16 14 C15.34 13.01 14.68 12.02 14 11 C12.02 11.66 10.04 12.32 8 13 C6.66094733 11.2126038 5.32890934 9.41995047 4 7.625 C3.2575 6.62726563 2.515 5.62953125 1.75 4.6015625 C0 2 0 2 0 0 Z " fill="#959261" transform="translate(250,166)"/>
<path d="M0 0 C0.99 0.66 1.98 1.32 3 2 C5.01954441 1.66179847 5.01954441 1.66179847 7 1 C7.99 1 8.98 1 10 1 C11.53515625 2.828125 11.53515625 2.828125 13.0625 5.25 C13.56910156 6.03890625 14.07570313 6.8278125 14.59765625 7.640625 C15.83602955 9.72412772 16.95283004 11.8154732 18 14 C16.55962331 13.06692579 15.12281015 12.12834923 13.6875 11.1875 C12.88699219 10.66542969 12.08648437 10.14335937 11.26171875 9.60546875 C9.2762598 8.19610151 7.6508148 6.77903343 6 5 C0.59510481 6.52012677 -2.98492628 10.27385218 -7 14 C-7.33 13.34 -7.66 12.68 -8 12 C-5.36 8.04 -2.72 4.08 0 0 Z " fill="#928F5F" transform="translate(258,312)"/>
<path d="M0 0 C0.33 0 0.66 0 1 0 C1.99 3.96 2.98 7.92 4 12 C7.91211733 10.84414715 10.8745041 9.64465038 14 7 C14.66 7.33 15.32 7.66 16 8 C13.69 11.3 11.38 14.6 9 18 C7.68 17.01 6.36 16.02 5 15 C2.88735364 14.23318275 2.88735364 14.23318275 0.75 13.8125 C-0.4875 13.544375 -1.725 13.27625 -3 13 C-2.01 8.71 -1.02 4.42 0 0 Z " fill="#818459" transform="translate(61,70)"/>
<path d="M0 0 C14.52 0 29.04 0 44 0 C42.35 1.32 40.7 2.64 39 4 C37.64852862 5.31494512 36.30887458 6.64264858 35 8 C34.34 7.67 33.68 7.34 33 7 C33.99 5.02 34.98 3.04 36 1 C24.12 1 12.24 1 0 1 C0 0.67 0 0.34 0 0 Z " fill="#848868" transform="translate(84,317)"/>
<path d="M0 0 C0 3.88291746 -1.37860494 5.46752535 -3.5 8.6875 C-4.1496875 9.68136719 -4.799375 10.67523438 -5.46875 11.69921875 C-5.9740625 12.45847656 -6.479375 13.21773438 -7 14 C-8.98 12.35 -10.96 10.7 -13 9 C-10.15118272 6.82418313 -7.23915912 4.79062001 -4.25 2.8125 C-3.45078125 2.28269531 -2.6515625 1.75289063 -1.828125 1.20703125 C-1.22484375 0.80871094 -0.6215625 0.41039062 0 0 Z " fill="#545B3E" transform="translate(468,401)"/>
<path d="M0 0 C2.68234235 2.42457972 4.36856725 5.07510397 6.1875 8.1875 C6.71730469 9.08855469 7.24710937 9.98960937 7.79296875 10.91796875 C8.19128906 11.60503906 8.58960938 12.29210937 9 13 C4.33333333 10.66666667 -0.33333333 8.33333333 -5 6 C-2.25 1.125 -2.25 1.125 0 0 Z " fill="#545B3F" transform="translate(460,425)"/>
<path d="M0 0 C6.93 3.96 6.93 3.96 14 8 C11.75 12.5 11.75 12.5 8 14 C7.03980636 12.41779413 6.08192202 10.83418669 5.125 9.25 C4.59132813 8.36828125 4.05765625 7.4865625 3.5078125 6.578125 C2.25327503 4.43306093 1.11132031 2.22264061 0 0 Z " fill="#545B3F" transform="translate(432,401)"/>
<path d="M0 0 C2.11044382 3.16566573 2.75552077 5.51197415 3.625 9.1875 C3.88539063 10.27417969 4.14578125 11.36085938 4.4140625 12.48046875 C4.60742188 13.31191406 4.80078125 14.14335937 5 15 C0.2890625 16.1171875 0.2890625 16.1171875 -2.3125 15.0625 C-2.869375 14.711875 -3.42625 14.36125 -4 14 C-3.2884375 12.205625 -3.2884375 12.205625 -2.5625 10.375 C-1.26517227 6.93585762 -0.45763049 3.66104396 0 0 Z " fill="#8C8759" transform="translate(450,394)"/>
<path d="M0 0 C2.97 0 5.94 0 9 0 C7.68 5.28 6.36 10.56 5 16 C4.67 16 4.34 16 4 16 C3.79503906 15.09636719 3.59007812 14.19273437 3.37890625 13.26171875 C3.10949219 12.08222656 2.84007812 10.90273438 2.5625 9.6875 C2.16224609 7.92986328 2.16224609 7.92986328 1.75390625 6.13671875 C1.04686031 2.99763029 1.04686031 2.99763029 0 0 Z " fill="#938D5C" transform="translate(446,430)"/>
<path d="M0 0 C4.875 2.625 4.875 2.625 6 6 C1.33333333 8.33333333 -3.33333333 10.66666667 -8 13 C-6.85605098 11.01974361 -5.70978896 9.04082322 -4.5625 7.0625 C-3.92441406 5.96035156 -3.28632813 4.85820312 -2.62890625 3.72265625 C-1 1 -1 1 0 0 Z " fill="#555C3F" transform="translate(440,425)"/>
<path d="M0 0 C1.381875 0.474375 2.76375 0.94875 4.1875 1.4375 C7.44004285 2.52510108 10.60587473 3.45256044 14 4 C11.42853943 6.57146057 9.3949583 6.80117997 5.875 7.625 C4.77929688 7.88539063 3.68359375 8.14578125 2.5546875 8.4140625 C1.71164062 8.60742188 0.86859375 8.80078125 0 9 C0 6.03 0 3.06 0 0 Z " fill="#908A5B" transform="translate(461,415)"/>
<path d="M0 0 C0 2.64 0 5.28 0 8 C-1.79379098 7.55005243 -3.58498928 7.08975857 -5.375 6.625 C-6.37273437 6.36976563 -7.37046875 6.11453125 -8.3984375 5.8515625 C-11 5 -11 5 -13 3 C-11.2092015 2.49689942 -9.41733089 1.99761372 -7.625 1.5 C-6.62726563 1.2215625 -5.62953125 0.943125 -4.6015625 0.65625 C-2 0 -2 0 0 0 Z " fill="#8F895A" transform="translate(440,416)"/>
<path d="M0 0 C0.2475 0.53625 0.495 1.0725 0.75 1.625 C2.29696975 4.56424252 4.13014369 7.25754408 6 10 C5.67 10.66 5.34 11.32 5 12 C1.7 10.02 -1.6 8.04 -5 6 C-3.35 4.02 -1.7 2.04 0 0 Z " fill="#4F5E44" transform="translate(70,95)"/>
<path d="M0 0 C1.65 1.65 3.3 3.3 5 5 C1.37 6.98 -2.26 8.96 -6 11 C-4.11900578 7.23801156 -2.10046807 3.64081132 0 0 Z " fill="#536045" transform="translate(53,96)"/>
<path d="M0 0 C0.66 0.33 1.32 0.66 2 1 C-0.31 4.3 -2.62 7.6 -5 11 C-6.65 9.35 -8.3 7.7 -10 6 C-9.44570312 5.73445313 -8.89140625 5.46890625 -8.3203125 5.1953125 C-7.59585938 4.84210938 -6.87140625 4.48890625 -6.125 4.125 C-5.40570313 3.77695313 -4.68640625 3.42890625 -3.9453125 3.0703125 C-1.84864981 2.03442457 -1.84864981 2.03442457 0 0 Z " fill="#4E5E43" transform="translate(75,77)"/>
<path d="M0 0 C2.31 0 4.62 0 7 0 C6.01 3.96 5.02 7.92 4 12 C1.94116077 7.88232154 1.03834872 4.45006595 0 0 Z " fill="#838559" transform="translate(58,101)"/>
<path d="M0 0 C4.29 0.99 8.58 1.98 13 3 C13 3.33 13 3.66 13 4 C8.71 4.66 4.42 5.32 0 6 C0 4.02 0 2.04 0 0 Z " fill="#84865A" transform="translate(70,89)"/>
<path d="M0 0 C3.7910119 1.44950455 7.3874638 3.15172566 11 5 C9.35 6.98 7.7 8.96 6 11 C5.7525 10.484375 5.505 9.96875 5.25 9.4375 C3.60418384 6.22815849 1.8023904 3.12414336 0 0 Z " fill="#505E43" transform="translate(47,78)"/>
<path d="M0 0 C0 2.31 0 4.62 0 7 C-3.3 6.01 -6.6 5.02 -10 4 C-9.67 3.34 -9.34 2.68 -9 2 C-2.88888889 0 -2.88888889 0 0 0 Z " fill="#86875A" transform="translate(53,89)"/>
<path d="M0 0 C1.32 1.32 2.64 2.64 4 4 C3.01 5.485 3.01 5.485 2 7 C0.68 6.67 -0.64 6.34 -2 6 C-2 3 -2 3 0 0 Z " fill="#D1BE7B" transform="translate(262,308)"/>
<path d="M0 0 C2.125 0.9375 2.125 0.9375 4 2 C3.34 3.32 2.68 4.64 2 6 C1.01 6 0.02 6 -1 6 C-1.33 4.35 -1.66 2.7 -2 1 C-1.34 0.67 -0.68 0.34 0 0 Z " fill="#D2BF7C" transform="translate(262,176)"/>
<path d="M0 0 C0 1.65 0 3.3 0 5 C-4.455 4.01 -4.455 4.01 -9 3 C-8.67 2.34 -8.34 1.68 -8 1 C-5.30114269 0.42577504 -2.76207303 0 0 0 Z " fill="#636848" transform="translate(464,90)"/>
<path d="M0 0 C1.65 0 3.3 0 5 0 C4.34 2.64 3.68 5.28 3 8 C2.34 8 1.68 8 1 8 C0.67 5.36 0.34 2.72 0 0 Z " fill="#686C4A" transform="translate(469,99)"/>
<path d="M0 0 C3.96 1.98 3.96 1.98 8 4 C7.67 4.99 7.34 5.98 7 7 C6.01 7.33 5.02 7.66 4 8 C0 2.25 0 2.25 0 0 Z " fill="#414D37" transform="translate(460,81)"/>
<path d="M0 0 C0.99 0.33 1.98 0.66 3 1 C3.33 1.99 3.66 2.98 4 4 C1.625 5.5625 1.625 5.5625 -1 7 C-1.66 6.67 -2.32 6.34 -3 6 C-2.01 4.02 -1.02 2.04 0 0 Z " fill="#46523A" transform="translate(464,95)"/>
<path d="M0 0 C0.33 0 0.66 0 1 0 C1.33 2.97 1.66 5.94 2 9 C0.68 9 -0.64 9 -2 9 C-1.34 6.03 -0.68 3.06 0 0 Z " fill="#606545" transform="translate(51,421)"/>
<path d="M0 0 C1.89213369 2.38573379 3.02391783 4.07175348 4 7 C1.08482708 5.92598892 -0.77810176 5.22189824 -3 3 C-2.01 2.01 -1.02 1.02 0 0 Z " fill="#444F39" transform="translate(477,95)"/>
<path d="M0 0 C2.3431213 0.25561323 4.67843403 0.59270772 7 1 C7.33 1.66 7.66 2.32 8 3 C5.36 3.33 2.72 3.66 0 4 C0 2.68 0 1.36 0 0 Z " fill="#6C6E4B" transform="translate(478,90)"/>
<path d="M0 0 C0.66 0 1.32 0 2 0 C2.33 2.31 2.66 4.62 3 7 C1.68 7 0.36 7 -1 7 C-0.67 4.69 -0.34 2.38 0 0 Z " fill="#6A6D4A" transform="translate(470,78)"/>
<path d="M0 0 C0 1.65 0 3.3 0 5 C-2.64 4.34 -5.28 3.68 -8 3 C-5.22569089 1.15046059 -3.35957737 0 0 0 Z " fill="#636747" transform="translate(46,433)"/>
<path d="M0 0 C0.33 0 0.66 0 1 0 C1.33 2.97 1.66 5.94 2 9 C1.01 9 0.02 9 -1 9 C-1.125 2.25 -1.125 2.25 0 0 Z " fill="#B1A86E" transform="translate(196,134)"/>
<path d="M0 0 C0 3.51716303 -0.82445585 4.37121748 -3 7 C-3.99 5.68 -4.98 4.36 -6 3 C-4.02 2.01 -2.04 1.02 0 0 Z " fill="#424E38" transform="translate(480,82)"/>
<path d="M0 0 C2.49361571 1.20381448 4.68143083 2.45428722 7 4 C5.68 4.99 4.36 5.98 3 7 C2.01 4.69 1.02 2.38 0 0 Z " fill="#3B4834" transform="translate(42,426)"/>
</svg>
